<?xml version="1.0" standalone="no"?>
<!DOCTYPE svg PUBLIC "-//W3C//DTD SVG 20010904//EN"
 "http://www.w3.org/TR/2001/REC-SVG-20010904/DTD/svg10.dtd">
<svg version="1.0" xmlns="http://www.w3.org/2000/svg"
 width="1024.000000pt" height="1024.000000pt" viewBox="0 0 1024.000000 1024.000000"
 preserveAspectRatio="xMidYMid meet">
<metadata>
Created by potrace 1.11, written by Peter Selinger 2001-2013
</metadata>
<g transform="translate(0.000000,1024.000000) scale(0.100000,-0.100000)"
fill="#000000" stroke="none">
<path d="M8940 9865 c-91 -25 -174 -46 -185 -49 -21 -4 -307 -78 -465 -120
-52 -13 -230 -59 -395 -101 -165 -42 -325 -83 -355 -91 -30 -8 -131 -35 -225
-59 -93 -24 -278 -71 -410 -105 -226 -58 -379 -98 -1160 -301 -246 -64 -336
-83 -390 -83 -95 -1 -107 6 -349 198 -123 98 -242 133 -416 123 -130 -8 -540
-110 -1024 -254 l-189 -57 -36 41 c-20 23 -60 56 -89 74 -44 26 -61 31 -96 27
-119 -14 -268 -146 -316 -280 -9 -24 -23 -41 -39 -47 -29 -10 -139 -46 -284
-92 -123 -39 -170 -75 -165 -127 7 -78 92 -93 296 -53 57 12 107 21 110 21 4
0 7 -72 7 -161 l0 -161 -108 -38 c-159 -56 -199 -90 -183 -153 14 -57 92 -66
293 -32 30 5 31 4 38 -37 4 -24 19 -95 34 -159 l28 -117 -66 -17 c-170 -45
-244 -114 -196 -182 29 -42 95 -47 259 -23 71 11 85 6 86 -28 0 -8 6 -26 13
-40 38 -75 96 -210 92 -214 -2 -2 -5 -16 -8 -33 -3 -16 -16 -82 -28 -145 -18
-90 -23 -151 -23 -277 l0 -162 -26 -10 c-14 -5 -61 -21 -105 -36 -125 -42
-277 -96 -310 -110 -16 -7 -86 -37 -155 -66 -843 -353 -1504 -900 -1837 -1519
-82 -152 -157 -352 -198 -525 -60 -258 -57 -576 9 -857 9 -37 20 -78 25 -91 5
-13 21 -82 36 -153 111 -534 422 -1009 922 -1412 434 -348 971 -620 1628 -822
39 -12 77 -24 85 -25 8 -2 47 -13 85 -24 74 -21 396 -96 455 -106 19 -3 53
-10 75 -15 22 -5 63 -12 90 -16 28 -3 59 -8 70 -11 11 -2 49 -8 85 -14 36 -5
76 -11 90 -13 43 -7 113 -16 165 -21 28 -3 66 -7 85 -10 19 -3 64 -7 100 -10
36 -3 85 -8 110 -10 156 -14 327 -19 640 -19 360 0 506 6 745 29 176 17 182
18 312 35 46 6 95 13 110 15 98 12 365 63 513 97 96 22 191 44 210 48 178 39
681 211 873 299 37 17 70 31 73 31 7 0 304 149 357 179 632 357 1070 785 1316
1285 89 182 148 355 177 521 3 17 15 64 26 105 35 133 56 224 63 275 4 28 10
59 12 70 3 11 6 99 8 195 3 182 -5 270 -35 420 -114 552 -497 1096 -1070 1520
-52 38 -99 73 -105 77 -35 27 -313 203 -320 203 -2 0 -28 14 -57 31 -53 32
-363 189 -372 189 -2 0 -33 13 -68 29 -159 73 -564 221 -733 267 -260 71 -599
148 -737 168 -21 3 -76 12 -122 21 -46 8 -113 17 -148 20 -34 4 -69 8 -76 10
-7 3 -40 7 -75 10 -34 4 -96 10 -137 15 -41 4 -93 9 -115 10 -22 1 -56 3 -75
5 -264 29 -905 23 -1240 -11 -107 -11 -107 -11 -190 -18 -41 -4 -94 -11 -117
-15 -23 -5 -44 -6 -47 -4 -7 7 3 130 15 191 6 29 13 69 15 89 3 20 6 39 9 43
2 3 9 38 15 76 7 38 14 83 17 99 8 40 8 269 0 321 l-6 41 97 17 c190 33 572
117 639 140 137 47 240 112 302 192 17 23 69 118 115 210 46 93 94 179 107
191 65 58 52 55 729 198 223 47 423 90 445 95 22 5 148 32 280 60 214 45 276
58 310 66 6 1 192 41 415 88 223 48 455 98 515 111 94 21 275 59 1033 220 63
14 130 34 149 46 80 50 148 211 137 324 -10 106 -104 245 -196 288 -52 25 -94
21 -278 -28z m-5149 -1168 c9 -7 21 -22 27 -34 l12 -21 -55 19 c-97 34 -153
21 -233 -57 -31 -30 -57 -54 -57 -54 -1 0 -2 6 -2 13 0 6 -3 31 -6 55 -4 30
-2 44 7 48 28 11 262 50 276 47 8 -3 22 -10 31 -16z m-617 -119 c5 -30 12 -88
20 -185 2 -18 -2 -37 -8 -42 -13 -10 -104 -41 -121 -41 -13 0 -19 247 -7 266
6 10 53 25 103 33 4 1 9 -14 13 -31z m592 -510 c-2 -26 4 -63 15 -92 10 -28
17 -51 15 -53 -5 -5 -140 -42 -143 -39 -1 1 -4 46 -6 99 -3 64 0 100 7 106 6
5 29 11 51 14 22 2 46 4 53 5 9 2 11 -10 8 -40z m-571 -51 c-2 -7 -6 -57 -9
-112 -7 -129 -15 -169 -31 -153 -8 8 -45 137 -52 183 -14 84 -12 89 32 95 47
7 65 3 60 -13z m696 -429 c6 -63 6 -255 -1 -303 -5 -33 -11 -76 -13 -95 -3
-19 -6 -37 -7 -40 0 -3 -21 49 -45 115 -23 66 -57 158 -74 204 -17 46 -31 89
-31 96 0 22 169 44 171 23z m-409 -190 c111 -373 145 -507 161 -649 l4 -37
-81 -17 c-44 -9 -88 -19 -97 -21 -14 -4 -16 8 -13 98 4 145 -18 262 -78 428
-27 75 -27 63 -4 161 21 90 24 109 25 131 1 18 30 52 38 44 2 -2 23 -64 45
-138z"/>
</g>
</svg>
